<!--?xml version="1.0" standalone="no"?-->
              <svg id="sw-js-blob-svg" viewBox="0 0 100 100" xmlns="http://www.w3.org/2000/svg" version="1.1">
                    <defs> 
                        <linearGradient id="sw-gradient" x1="0" x2="1" y1="1" y2="0">
                            <stop id="stop1" stop-color="rgba(4.308, 8.04, 26.254, 1)" offset="0%"></stop>
                            <stop id="stop2" stop-color="rgba(69.661, 19.658, 231.165, 1)" offset="100%"></stop>
                        </linearGradient>
                    </defs>
                <path fill="url(#sw-gradient)" d="M19.9,-30.2C25,-27.7,27.7,-20.8,28.8,-14.3C30,-7.9,29.5,-1.8,28.1,3.7C26.8,9.2,24.5,14.2,21.3,19.3C18.2,24.5,14.2,29.7,8.2,34.5C2.2,39.3,-6,43.6,-11.2,40.8C-16.5,38.1,-18.9,28.3,-24.3,21.4C-29.7,14.5,-38.1,10.6,-39.8,5.2C-41.4,-0.3,-36.3,-7.3,-32,-13.7C-27.6,-20.1,-24,-25.9,-18.8,-28.4C-13.6,-30.8,-6.8,-29.9,0.3,-30.3C7.4,-30.8,14.8,-32.7,19.9,-30.2Z" width="100%" height="100%" transform="translate(50 50)" stroke-width="0" style="transition: all 0.3s ease 0s;" stroke="url(#sw-gradient)"></path>
              </svg>